<svg width="32" height="32" viewBox="0 0 32 32" fill="none" xmlns="http://www.w3.org/2000/svg">
<path d="M20.5908 18.2832C20.8406 19.7805 21.249 21.1849 21.6953 22.4111C22.1676 23.7085 22.6895 24.8214 23.1201 25.6582C21.1282 27.1291 18.6662 28 16 28C13.3725 28 10.9442 27.153 8.96777 25.7207C9.40444 24.8772 9.9406 23.7412 10.4248 22.4111C10.8704 21.1871 11.2765 19.7853 11.5264 18.291C12.7326 18.4272 14.0418 18.5123 15.46 18.5303V27.8926H16.71V18.5293C18.1069 18.5076 19.3986 18.4198 20.5908 18.2832ZM4.00879 16.4492C5.61021 17.1119 7.68057 17.7382 10.2861 18.1289C10.0524 19.506 9.67511 20.8156 9.25 21.9834C8.82972 23.1379 8.36718 24.1404 7.97363 24.9189C5.63808 22.8158 4.13246 19.8094 4.00879 16.4492ZM27.9893 16.4854C27.8577 19.7918 26.3882 22.7529 24.1074 24.8447C23.7222 24.0772 23.277 23.1012 22.8701 21.9834C22.4441 20.8131 22.0655 19.5005 21.832 18.1201C24.3677 17.736 26.4007 17.1287 27.9893 16.4854ZM15.46 17.2803C14.0991 17.2626 12.8453 17.182 11.6924 17.0527C11.861 15.3712 11.8028 13.6056 11.3525 11.8643C10.7727 9.62223 9.83156 7.82171 8.80078 6.39844C10.6719 4.99327 12.9671 4.12212 15.46 4.01172V17.2803ZM16.71 4.02148C19.1711 4.16509 21.4319 5.05121 23.2744 6.45801C22.2607 7.87178 21.3392 9.65385 20.7676 11.8643C20.318 13.6029 20.2582 15.3657 20.4258 17.0449C19.2866 17.1746 18.0498 17.2569 16.71 17.2783V4.02148ZM7.84082 7.20312C8.76966 8.50219 9.61593 10.1404 10.1426 12.1768C10.547 13.7409 10.6038 15.3438 10.4521 16.8906C7.69399 16.4755 5.5849 15.789 4.0332 15.1006C4.26397 11.9862 5.6847 9.20388 7.84082 7.20312ZM24.2295 7.27148C26.3543 9.27558 27.7494 12.0441 27.9688 15.1396C26.4225 15.8096 24.3482 16.4738 21.666 16.8818C21.5156 15.3377 21.5748 13.7379 21.9785 12.1768C22.4959 10.1764 23.3203 8.55948 24.2295 7.27148Z" fill="#F74501"/>
</svg>
