<svg width="313" height="40" viewBox="0 0 313 40" fill="none" xmlns="http://www.w3.org/2000/svg">
<path d="M163.75 7.96307L194.169 7.89258L190.503 15.083H181.303L172.774 32.5303H163.75L172.28 15.083H163.75V7.96307Z" fill="white"/>
<path d="M158.379 15.083V15.0477H141.073L139.627 17.656H154.22L151.752 22.6963H137.336L136.067 25.3046H156.334L152.81 32.5303H133.036C128.63 32.5303 125.74 27.9129 127.679 23.9652L135.539 7.89258H161.904L158.379 15.083Z" fill="white"/>
<path d="M123.066 7.85718H132.089L120.035 32.5301H111.012L112.175 30.1333L107.558 17.3386L100.156 32.5654L91.1324 32.5301L99.6622 15.0828L97.7236 7.85718H112.175L116.334 21.6388L123.066 7.85718Z" fill="white"/>
<path d="M79.1459 25.3045H91.9406L88.4159 32.5654H66.598L78.6172 7.85718H87.6757L79.1459 25.3045Z" fill="white"/>
<path d="M55.0513 25.3045H67.846L64.3212 32.5654H42.5033L54.5226 7.85718H63.5811L55.0513 25.3045Z" fill="white"/>
<path d="M40.2521 8.13915L40.5341 32.5654H22.9811L21.9942 27.5603H31.4756V26.8201L31.3699 16.9509L9.02325 39.0861H0L28.0919 11.2409L26.1886 7.85718H40.2521V8.13915Z" fill="white"/>
<path d="M210.06 7.90667C211.37 7.90711 212.7 7.81757 213.99 8.06641C217.904 8.82143 217.443 12.3209 217.431 15.3383L214.863 15.3411C214.871 13.9822 215.211 11.1554 213.634 10.6166C213.312 10.5097 212.978 10.4415 212.64 10.4143C211.355 10.3161 209.621 10.4194 208.283 10.3871C207.05 10.4137 205.757 10.3413 204.532 10.4283C203.774 10.512 202.952 10.8512 202.768 11.665C202.479 12.9465 202.584 14.4325 202.585 15.7534L202.589 21.3539L202.583 25.7164C202.581 27.2988 202.386 28.2509 203.126 29.7091C204.523 30.4092 205.402 30.2295 206.901 30.2316L211.694 30.2309C214.349 30.2231 214.864 29.6437 214.869 26.9224C214.871 25.7501 214.865 24.5272 214.861 23.351L214.857 22.2287C212.782 22.1721 210.492 22.2185 208.401 22.2175C208.395 21.3984 208.398 20.5791 208.411 19.76C211.316 19.6994 214.513 19.7373 217.428 19.7628L217.436 25.1228C217.44 28.5005 217.902 32.415 213.119 32.6576C210.621 32.7507 207.959 32.6206 205.48 32.6821C199.4 32.8328 199.924 29.0607 199.922 24.5619L199.923 14.5557C199.928 10.734 200.085 8.19129 204.714 7.91783C204.78 7.9146 204.846 7.91246 204.911 7.91155L210.06 7.90667Z" fill="white"/>
<path d="M302.41 7.90388H305.184C305.871 7.9035 306.558 7.90432 307.24 7.91155C312.194 7.96422 312.352 11.368 312.228 15.2128C311.325 15.2268 310.42 15.2249 309.516 15.2079C309.421 13.7295 309.691 12.5575 309.232 11.0917L309.22 11.0798C308.304 10.1709 307.601 10.2319 306.349 10.2288L302.162 10.2302C301.384 10.2321 300.499 10.1597 299.737 10.3097C299.337 10.3884 298.919 10.5574 298.629 10.851C297.819 11.6699 298.087 13.9148 298.102 15.0049C298.111 15.6844 298.143 16.5431 298.626 17.0766C300.122 18.73 309.045 18.9664 311.381 21.2619C312.242 22.1079 312.525 23.2352 312.536 24.4057C312.55 25.8363 312.698 28.1618 312.381 29.4894C312.209 30.211 311.851 30.9324 311.325 31.4621C310.261 32.5351 308.673 32.6804 307.246 32.68C304.835 32.6776 302.417 32.694 300.006 32.6793C299.172 32.6742 298.091 32.4382 297.357 32.0466C294.986 30.7829 295.261 27.4256 295.34 25.1277C296.224 25.122 297.109 25.1229 297.993 25.1311C297.997 28.4057 297.316 30.6557 301.482 30.3871C303.388 30.2643 305.664 30.4876 307.614 30.3704C309.669 30.2468 309.928 29.1729 309.943 27.3061C310.043 22.9204 309.857 22.6922 305.739 21.7955C304.05 21.4437 302.367 21.0542 300.694 20.6285C296.997 19.6967 295.383 19.1358 295.354 14.751C295.33 10.9657 295.546 8.16898 300.178 7.91853C300.83 7.87897 301.658 7.89723 302.41 7.90388Z" fill="white"/>
<path fill-rule="evenodd" clip-rule="evenodd" d="M232.855 7.91155C232.965 8.41139 233.422 9.52289 233.624 10.0823L235.549 15.316L241.891 32.6758L239.005 32.6786C238.118 30.2841 237.301 27.6296 236.342 25.2713C235.175 25.2465 233.941 25.2656 232.769 25.2644L226.142 25.2616C225.577 27.0432 224.873 28.8146 224.267 30.5845C224.059 31.1929 223.666 32.0919 223.532 32.6814C222.605 32.6856 221.679 32.68 220.752 32.6653C221.065 31.9622 221.393 30.9292 221.668 30.18C222.277 28.5598 222.874 26.9349 223.458 25.3055C225.554 19.5763 227.666 13.5745 229.869 7.90946L232.855 7.91155ZM231.272 11.0979C230.745 12.3289 230.242 13.8585 229.791 15.1402C229.145 16.9932 228.486 18.8418 227.814 20.6857C227.586 21.3216 227.306 22.232 227.065 22.8272C228.288 22.9083 230.027 22.8603 231.284 22.8606C232.617 22.8599 234.112 22.8926 235.432 22.8474C235.262 22.1507 231.343 11.1681 231.272 11.0979Z" fill="white"/>
<path d="M249.433 7.91086C251.033 11.1831 252.566 14.7618 254.087 18.0922C255.228 20.5888 256.56 23.3443 257.618 25.8454C258.849 23.0995 260.1 20.3617 261.369 17.6325C262.831 14.3839 264.312 11.1435 265.811 7.91155C266.866 7.90729 268.065 7.88016 269.105 7.93457C269.167 9.14516 269.131 10.6298 269.131 11.8562L269.133 27.4728C269.133 29.1776 269.161 30.9784 269.11 32.6772L266.508 32.6765L266.512 15.7331L266.503 12.154C266.236 12.6079 265.821 13.5831 265.592 14.0855L261.351 23.4989C260.532 25.2812 259.583 27.2727 258.858 29.0848L256.389 29.082C255.93 28.24 255.441 26.9787 255.021 26.0659L250.803 16.7376C250.186 15.3793 249.41 13.4855 248.706 12.2245C248.824 18.921 248.717 25.9593 248.717 32.6793L246.22 32.6751C246.173 31.1848 246.203 29.5737 246.203 28.0748L246.202 12.3856C246.202 11.7848 246.127 8.17028 246.329 7.91504C247.317 7.88439 248.435 7.90989 249.433 7.91086Z" fill="white"/>
<path d="M277.756 7.90807C282.293 7.96339 286.866 7.82462 291.4 7.92481C291.409 8.74186 291.407 9.55906 291.393 10.376C287.202 10.4847 282.611 10.3915 278.39 10.3899V18.8009C282.04 18.8445 285.739 18.7915 289.398 18.8121C289.426 19.5771 289.405 20.4351 289.403 21.2068C286.891 21.3469 284.014 21.1637 281.472 21.2347C280.678 21.2568 279.163 21.1654 278.453 21.257C278.361 21.4008 278.391 21.5159 278.388 21.7069L278.39 30.2253L291.404 30.2379L291.408 32.6765L275.675 32.6751C275.604 27.7938 275.669 22.7227 275.669 17.8258V11.596C275.668 11.1117 275.597 8.13084 275.784 7.91574C276.431 7.89818 277.108 7.90013 277.756 7.90807Z" fill="white"/>
</svg>
